<svg xmlns="http://www.w3.org/2000/svg" width="42" height="42" viewBox="0 0 42 42">
    <g transform="translate(-1829.204 -892.204)">
        <g transform="matrix(0.966, -0.259, 0.259, 0.966, 1829.791, 902.81)">
            <g transform="translate(0 0)">
                <path d="M.048,8.845,0,20.719a1.417,1.417,0,0,0,.451,1.045,1.484,1.484,0,0,0,1.069.38c.024,0,1.235-.095,3.111-.119a11.588,11.588,0,0,0,1.021,4.061,7.611,7.611,0,0,0,7.1,4.56h.237a7.5,7.5,0,0,0,5.343-1.971,9,9,0,0,0,2.47-4.916A36.446,36.446,0,0,1,31.68,29.743h0a1.39,1.39,0,0,0,.95.356,1.528,1.528,0,0,0,.57-.119,1.428,1.428,0,0,0,.855-1.306V1.436A1.428,1.428,0,0,0,33.2.129a1.419,1.419,0,0,0-1.544.237c-.048.048-5.747,5.13-10.069,6.459A36.826,36.826,0,0,1,11.28,7.99a87.51,87.51,0,0,1-9.618-.57,1.46,1.46,0,0,0-1.116.333A1.518,1.518,0,0,0,.048,8.845ZM12.99,27.8h-.166a4.783,4.783,0,0,1-4.56-2.85A8.2,8.2,0,0,1,7.481,22c.57,0,1.187.024,1.781.048a1.435,1.435,0,0,0,.57.119h0a1.132,1.132,0,0,0,.475-.095,48.6,48.6,0,0,1,7.718.9C17.859,24.447,16.98,27.8,12.99,27.8ZM22.442,9.557c3.063-.95,6.531-3.348,8.763-5.106V25.8a41.888,41.888,0,0,0-9.452-4.75A39.088,39.088,0,0,0,11.3,19.294l.048-8.431A39.54,39.54,0,0,0,22.442,9.557ZM2.9,10.436c1.306.119,3.3.285,5.6.356l-.048,8.359c-.641-.024-1.259-.024-1.829-.024-1.52,0-2.826.048-3.776.071Z" fill="#e46f4a"/>
            </g>
        </g>
    </g>
</svg>