<svg id="vuesax_bulk_search-favorite" data-name="vuesax/bulk/search-favorite" xmlns="http://www.w3.org/2000/svg" width="24" height="24" viewBox="0 0 24 24">
  <g id="search-favorite">
    <path id="Vector" d="M19,9.5A9.5,9.5,0,1,1,9.5,0,9.5,9.5,0,0,1,19,9.5Z" transform="translate(2 2)" fill="#da453f" opacity="0.4"/>
    <path id="Vector-2" data-name="Vector" d="M2.552,3.252a.7.7,0,0,1-.49-.2L.2,1.192A.706.706,0,0,1,.2.2a.706.706,0,0,1,.99,0l1.86,1.86a.706.706,0,0,1,0,.99A.738.738,0,0,1,2.552,3.252Z" transform="translate(18.748 18.748)" fill="#da453f"/>
    <path id="Vector-3" data-name="Vector" d="M5.092.1a1.957,1.957,0,0,0-1.78.29A1.942,1.942,0,0,0,1.542.1a2.477,2.477,0,0,0-1.41,3.17,4.221,4.221,0,0,0,3.18,2.75,4.263,4.263,0,0,0,3.18-2.75A2.463,2.463,0,0,0,5.092.1Z" transform="translate(8.178 8.794)" fill="#da453f"/>
    <path id="Vector-4" data-name="Vector" d="M0,0H24V24H0Z" fill="none" opacity="0"/>
  </g>
</svg>
