<svg id="vuesax_bulk_sms-star" data-name="vuesax/bulk/sms-star" xmlns="http://www.w3.org/2000/svg" width="24" height="24" viewBox="0 0 24 24">
  <g id="sms-star">
    <path id="Vector" d="M0,0H24V24H0Z" fill="none" opacity="0"/>
    <g id="Group" transform="translate(14.995 2.003)">
      <path id="Vector-2" data-name="Vector" d="M4.485.817l.28.57a1.251,1.251,0,0,0,.8.6l.38.06c1.14.19,1.41,1.03.59,1.86l-.35.35a1.266,1.266,0,0,0-.29,1.02l.05.21c.31,1.38-.42,1.91-1.62,1.19l-.26-.15a1.229,1.229,0,0,0-1.12,0l-.26.15c-1.21.73-1.94.19-1.62-1.19l.05-.21a1.266,1.266,0,0,0-.29-1.02l-.35-.35c-.82-.83-.55-1.67.59-1.86l.38-.06a1.243,1.243,0,0,0,.8-.6l.28-.57C3.065-.273,3.945-.273,4.485.817Z" transform="translate(0 0)" fill="#da453f"/>
    </g>
    <path id="Vector-3" data-name="Vector" d="M20,6.17V12c0,3.5-2,5-5,5H5c-3,0-5-1.5-5-5V5C0,1.5,2,0,5,0h7.05a2.037,2.037,0,0,0-.44.77,2.646,2.646,0,0,0,.8,2.69l.19.19a2.639,2.639,0,0,0,.83,2.94A2.23,2.23,0,0,0,14.74,7a3.373,3.373,0,0,0,1.72-.54l.04-.02.04.02a2.618,2.618,0,0,0,3.03.13A1.837,1.837,0,0,0,20,6.17Z" transform="translate(2 3.5)" fill="#da453f" opacity="0.4"/>
    <g id="Group-2" data-name="Group" transform="translate(6.247 8.247)">
      <path id="Vector-4" data-name="Vector" d="M5.753,4.623a3.717,3.717,0,0,1-2.34-.79l-3.13-2.5a.747.747,0,0,1,.93-1.17l3.13,2.5a2.386,2.386,0,0,0,2.81,0,.747.747,0,1,1,.93,1.17A3.67,3.67,0,0,1,5.753,4.623Z" transform="translate(0 0)" fill="#da453f"/>
    </g>
  </g>
</svg>
