<svg xmlns="http://www.w3.org/2000/svg" xmlns:xlink="http://www.w3.org/1999/xlink" width="24" height="24" viewBox="0 0 24 24">
  <defs>
    <clipPath id="clip-path">
      <path id="Path_536" data-name="Path 536" d="M0,0H24V24H0Z"/>
    </clipPath>
  </defs>
  <g id="baseline-touch_app-24px" clip-path="url(#clip-path)">
    <path id="Path_535" data-name="Path 535" d="M18.84,15.87,14.3,13.61a1.408,1.408,0,0,0-.54-.11H13v-6a1.5,1.5,0,0,0-3,0V18.24l-3.43-.72a1.748,1.748,0,0,0-.24-.03,1.119,1.119,0,0,0-.79.33l-.79.8,4.94,4.94a1.505,1.505,0,0,0,1.06.44h6.79a1.457,1.457,0,0,0,1.44-1.28l.75-5.27a1.437,1.437,0,0,0-.89-1.58Z" fill="#da453f"/>
    <path id="Vector" d="M13,6.5A6.5,6.5,0,1,1,6.5,0,6.5,6.5,0,0,1,13,6.5Z" transform="translate(4.875 1)" fill="#da453f" opacity="0.4"/>
  </g>
</svg>
