<svg id="vuesax_bulk_video" data-name="vuesax/bulk/video" xmlns="http://www.w3.org/2000/svg" width="24" height="24" viewBox="0 0 24 24">
  <g id="video">
    <path id="Vector" d="M10.75,0h-6C1.33,0,0,1.33,0,4.75v8A4.415,4.415,0,0,0,4.75,17.5h6c3.42,0,4.75-1.33,4.75-4.75v-8C15.5,1.33,14.17,0,10.75,0Z" transform="translate(2.25 3.25)" fill="#da453f" opacity="0.4"/>
    <path id="Vector-2" data-name="Vector" d="M3.76,1.88A1.88,1.88,0,1,1,1.88,0,1.88,1.88,0,0,1,3.76,1.88Z" transform="translate(9.62 7.62)" fill="#da453f"/>
    <path id="Vector-3" data-name="Vector" d="M3.92.2a2.27,2.27,0,0,0-2.44.37L0,1.613c.01.14.02.27.02.42v8c0,.15-.02.28-.02.42l1.48,1.04a2.752,2.752,0,0,0,1.59.58,1.83,1.83,0,0,0,.85-.2,2.257,2.257,0,0,0,1.1-2.21V2.413A2.257,2.257,0,0,0,3.92.2Z" transform="translate(17.73 5.967)" fill="#da453f"/>
    <path id="Vector-4" data-name="Vector" d="M0,0H24V24H0Z" fill="none" opacity="0"/>
  </g>
</svg>
